<?xml version="1.0" encoding="UTF-8"?>
<!DOCTYPE svg PUBLIC "-//W3C//DTD SVG 1.1//EN" "http://www.w3.org/Graphics/SVG/1.1/DTD/svg11.dtd">
<!-- Creator: CorelDRAW X7 -->
<svg xmlns="http://www.w3.org/2000/svg" xml:space="preserve" width="31.501mm" height="6.55mm" version="1.1" style="shape-rendering:geometricPrecision; text-rendering:geometricPrecision; image-rendering:optimizeQuality; fill-rule:evenodd; clip-rule:evenodd"
viewBox="0 0 3125 650"
 xmlns:xlink="http://www.w3.org/1999/xlink">
 <defs>
  <style type="text/css">
   <![CDATA[
    .str0 {stroke:#B2B3B3;stroke-width:19.8431}
    .fil2 {fill:#2B2A29}
    .fil1 {fill:#2A6CEA}
    .fil0 {fill:#ECEFF2}
   ]]>
  </style>
 </defs>
 <g id="Слой_x0020_1">
  <metadata id="CorelCorpID_0Corel-Layer"/>
  <circle class="fil0 str0" cx="656" cy="325" r="315"/>
  <circle class="fil1" cx="315" cy="325" r="315"/>
  <path class="fil2" d="M1345 488c-60,0 -89,-29 -89,-87l0 -139 -35 0 0 -54 35 0 0 -59 75 0 0 59 58 0 0 54 -58 0 0 132c0,22 11,33 31,33 11,0 21,-2 29,-5l0 58c-14,5 -30,8 -46,8zm230 0c-43,0 -77,-12 -102,-37 -28,-25 -41,-59 -41,-102l0 -5c0,-42 13,-77 41,-104 26,-25 60,-38 100,-38 38,0 69,11 93,33 27,24 41,60 41,106l0 21 -198 0c1,23 7,41 19,54 12,12 28,18 49,18 33,0 52,-13 57,-38l72 0c-4,30 -18,52 -41,69 -22,15 -52,23 -90,23zm58 -173c-3,-40 -23,-61 -60,-61 -17,0 -32,5 -43,16 -11,11 -17,26 -20,45l123 0zm232 173c-37,0 -66,-8 -87,-23 -20,-16 -31,-39 -33,-69l71 0c2,14 7,23 14,30 7,6 18,9 34,9 29,0 43,-10 43,-30 0,-9 -4,-16 -12,-21 -9,-5 -23,-8 -43,-11 -37,-6 -63,-15 -78,-27 -16,-12 -23,-32 -23,-59 0,-27 11,-48 33,-64 19,-14 44,-21 75,-21 32,0 58,6 77,18 21,14 33,37 37,67l-70 0c-2,-12 -7,-20 -13,-26 -7,-5 -17,-7 -30,-7 -13,0 -22,2 -29,7 -7,6 -10,12 -10,21 0,9 4,15 11,19 8,5 22,8 42,11 36,5 62,13 79,24 18,14 27,35 27,62 0,29 -10,52 -30,67 -20,16 -48,23 -85,23zm270 0c-59,0 -89,-29 -89,-87l0 -139 -35 0 0 -54 35 0 0 -59 76 0 0 59 58 0 0 54 -58 0 0 132c0,22 10,33 30,33 12,0 21,-2 29,-5l0 58c-14,5 -29,8 -46,8zm111 -381l85 0 0 309 153 0 0 66 -238 0 0 -375zm367 381c-26,0 -48,-6 -64,-19 -18,-15 -27,-35 -27,-63 0,-30 13,-53 39,-68 24,-13 59,-20 103,-20l31 0 0 -11c0,-17 -3,-30 -10,-38 -6,-8 -17,-12 -34,-12 -27,0 -43,13 -47,39l-72 0c2,-31 15,-55 38,-72 22,-15 50,-22 85,-22 36,0 63,7 83,23 22,16 32,43 32,78l0 179 -74 0 0 -33c-18,26 -46,39 -83,39zm23 -53c17,0 31,-4 43,-13 11,-9 16,-21 16,-36l0 -23 -29 0c-23,0 -41,3 -53,9 -11,6 -17,16 -17,30 0,22 13,33 40,33zm370 53c-21,0 -39,-4 -54,-13 -15,-9 -27,-21 -34,-36l0 43 -76 0 0 -399 76 0 0 168c8,-14 20,-26 35,-35 16,-10 33,-14 53,-14 34,0 63,12 85,36 23,25 34,60 34,104l0 4c0,45 -11,79 -34,105 -21,25 -50,37 -85,37zm-23 -59c21,0 37,-7 48,-21 12,-14 17,-34 17,-61l0 -4c0,-28 -6,-48 -18,-62 -12,-14 -27,-21 -47,-21 -21,0 -38,7 -50,21 -12,14 -18,35 -18,62l0 4c0,27 6,47 18,61 12,14 29,21 50,21z"/>
 </g>
</svg>
